<svg xmlns="http://www.w3.org/2000/svg" xmlns:xlink="http://www.w3.org/1999/xlink" xmlns:inkscape="http://www.inkscape.org/namespaces/inkscape" version="1.1" width="380" height="154" viewBox="0 0 380 154">
<defs>
<clipPath id="clip_1">
<path transform="matrix(1,0,0,-1,-103,473)" d="M103 319H483V473H103Z" clip-rule="evenodd"/>
</clipPath>
<path id="font_2_13" d="M.10398865 .49609376V0H.054992677V.49609376H.10398865M.040985109 .65509036C.040985109 .6030884 .11999512 .6030884 .11999512 .65509036 .11999512 .7070923 .040985109 .7070923 .040985109 .65509036Z"/>
<path id="font_2_11" d="M.4039917 .45791627C.3659973 .48492433 .31399537 .5029297 .2639923 .5029297 .13598633 .5029297 .03199768 .4159546 .03199768 .26208497 .03199768 .13020325 .12098694 .023254395 .2639923 .023254395 .35598756 .023254395 .45098878-.018814087 .45098878-.125 .45098878-.23019409 .36299134-.27427674 .2639923-.27427674 .16499329-.27427674 .07899475-.22618103 .07899475-.125H.02999878C.02999878-.25022889 .1329956-.32226563 .2639923-.32226563 .394989-.32226563 .49899293-.25823976 .49899293-.125 .49899293-.039855958 .45098878 .021255494 .3639984 .052261354 .44599916 .08924866 .49699403 .17616272 .49699403 .26208497 .49699403 .34202577 .47099305 .39198304 .43598939 .4299469L.48399354 .48591615 .45199586 .5136719 .4039917 .45791627M.2639923 .45391847C.3659973 .45391847 .44898988 .38697816 .44898988 .26208497 .44898988 .16018677 .3659973 .072265628 .2639923 .072265628 .15098572 .072265628 .08099365 .16018677 .08099365 .26208497 .08099365 .39097596 .16299439 .45391847 .2639923 .45391847Z"/>
<path id="font_2_14" d="M.054992677 .49414063V0H.10398865V.2750702C.10398865 .37705995 .1749878 .45407105 .2769928 .45507813 .38398744 .45606996 .45298768 .39605714 .45298768 .28404237V0H.5019989V.28503419C.5019989 .4220581 .41099549 .503067 .2789917 .503067 .20999146 .5020752 .14099121 .47407533 .102996829 .4060669V.49414063H.054992677Z"/>
<path id="font_2_9" d="M.4269867 .10211182C.3869934 .06210327 .33299256 .041107179 .27999879 .041107179 .16799927 .041107179 .07398987 .114105228 .07398987 .24711609 .07398987 .3801117 .16799927 .453125 .27999879 .453125 .33299256 .453125 .3880005 .43411256 .42799378 .39411927L.45999146 .42510987C.4099884 .4741211 .34498597 .499115 .27999879 .499115 .13699341 .499115 .025985718 .40312196 .025985718 .24711609 .025985718 .09111023 .14099121-.0048828127 .27999879-.0048828127 .34498597-.0048828127 .4099884 .019104004 .45999146 .069107059L.4269867 .10211182Z"/>
<path id="font_2_15" d="M.2829895-.0068359377C.42199708-.0068359377 .5339966 .089141849 .5339966 .24609375 .5339966 .40304566 .42199708 .50302127 .2829895 .50302127 .14399719 .50302127 .03199768 .40304566 .03199768 .24609375 .03199768 .089141849 .14399719-.0068359377 .2829895-.0068359377M.2829895 .041152955C.17098999 .041152955 .07998657 .118133548 .07998657 .24609375 .07998657 .37405396 .17098999 .45703126 .2829895 .45703126 .394989 .45703126 .48599244 .37405396 .48599244 .24609375 .48599244 .118133548 .394989 .041152955 .2829895 .041152955Z"/>
<path id="font_2_1" d=""/>
<path id="font_2_7" d="M.48098756 .49414063V.38613893C.43998719 .4631195 .35899354 .5001221 .2789917 .5001221 .14099121 .5001221 .027999878 .39813233 .027999878 .2471466 .027999878 .09617615 .14099121-.0078125 .2789917-.0078125 .35899354-.0078125 .43299867 .028182984 .48098756 .105163577V0H.5299988C.5299988 .16503906 .5299988 .3290863 .5299988 .49414063H.48098756M.2789917 .453125C.55400088 .453125 .55400088 .04017639 .2789917 .04017639 .16699219 .04017639 .07699585 .123168949 .07699585 .2471466 .07699585 .37112428 .16699219 .453125 .2789917 .453125Z"/>
<path id="font_2_8" d="M.30599977 .45507813C.4169922 .45507813 .5079956 .38609315 .5079956 .24713135 .5079956 .11016846 .4169922 .04017639 .30599977 .04017639 .18998719 .04017639 .10398865 .12515259 .10398865 .24812317 .10398865 .37109376 .19198609 .45507813 .30599977 .45507813M.054992677 .7001953V0H.102996829V.10900879C.14399719 .034179689 .22499085-.0078125 .30899049-.0078125 .44699098-.0078125 .55599978 .08317566 .55599978 .24713135 .55599978 .41007997 .44599916 .5020752 .30799867 .5020752 .22299195 .5020752 .14299011 .46606446 .102996829 .38609315V.7001953H.054992677Z"/>
<path id="font_2_4" d="M.116989139 .6491852H.5469971V.7001953H.06399536V0H.5589905V.051986696H.116989139V.328125H.5269928V.37712098H.116989139V.6491852Z"/>
<path id="font_2_19" d="M.21499634 0H.2689972L.47599793 .49414063H.42199708L.24198914 .057006837 .06199646 .49414063H.0079956059L.21499634 0Z"/>
<path id="font_2_10" d="M.27799989-.0068359377C.35699464-.0068359377 .44299317 .025161744 .4909973 .088256839L.45599366 .11633301C.4189911 .067214969 .34298707 .041152955 .27799989 .041152955 .17599488 .041152955 .08699036 .108306888 .07699585 .2245636H.5219879C.54100039 .41714479 .4169922 .5020294 .27799989 .5020294 .13899231 .5020294 .026992798 .39520265 .026992798 .24757385 .026992798 .090270999 .13899231-.0068359377 .27799989-.0068359377M.07699585 .26757813C.08799744 .38822938 .17599488 .45703126 .27799989 .45703126 .39698792 .45703126 .47698976 .3892212 .47799684 .26757813H.07699585Z"/>
<path id="font_2_16" d="M.054992677 .49414063V0H.10398865V.28807069C.10398865 .37809754 .1749878 .45211793 .2669983 .453125 .29599 .453125 .32499696 .44610597 .35099793 .43011476L.37298585 .4701233C.33999635 .4901123 .3039856 .5001221 .2669983 .499115 .20399475 .499115 .13398743 .473114 .102996829 .4060974L.100997928 .49414063H.054992677Z"/>
<path id="font_2_20" d="M.42399598 .49414063 .2999878 .2030487 .24299622 .059005739 .18499756 .20205689 .069992069 .49414063H.016998291L.21499634 .005996704 .12399292-.20605469H.17599488L.47698976 .49414063H.42399598Z"/>
<path id="font_2_18" d="M.11999512 .63853457V.49414063H.01499939V.45314027H.11999512V.15214539C.11999512 .055160524 .1539917-.0068359377 .25898744-.0068359377 .2899933-.0068359377 .32099916 .0031585694 .35198976 .018157959L.33499146 .058151246C.30999757 .046157838 .2829895 .03816223 .25898744 .03816223 .18199158 .03816223 .16799927 .0851593 .16799927 .15214539V.45314027H.33599855V.49414063H.16799927V.6435547L.11999512 .63853457Z"/>
<path id="font_2_12" d="M.054992677 .7001953V0H.10398865V.27105714C.10398865 .3740692 .17599488 .45410157 .27999879 .45410157 .3909912 .45410157 .43899537 .38508607 .43899537 .28305055V0H.4869995V.28305055C.4869995 .41207887 .41799928 .50109866 .27999879 .50109866 .21099854 .50009158 .14199829 .47309876 .101989749 .40208436V.7001953H.054992677Z"/>
<path id="font_2_5" d="M.56199648 .59098818C.49299623 .69395449 .4059906 .70996096 .30599977 .70996096 .19099427 .70996096 .036987306 .6639557 .039993287 .5160217 .039993287 .38708497 .17098999 .36109925 .29899598 .33610536 .4139862 .31411744 .5299988 .2911377 .5289917 .18617249 .5289917 .0622406 .3919983 .038253786 .30599977 .038253786 .21998596 .038253786 .10998535 .08023071 .066986087 .16519165L.018997193 .14120484C.07299805 .03425598 .19699097-.0107421879 .30599977-.0107421879 .4229889-.0107421879 .58200076 .027252198 .58299258 .18518067 .58299258 .33610536 .44299317 .36009217 .30799867 .38607789 .18998719 .40808106 .09399414 .4290619 .09399414 .51802065 .09399414 .62997439 .22399903 .6599579 .30599977 .6599579 .3849945 .6589508 .46699525 .6469574 .5179901 .56500247L.56199648 .59098818Z"/>
<path id="font_2_17" d="M.42399598 .43605042C.375 .4820404 .31199647 .5020447 .23999024 .5020447 .13999939 .50305178 .042999269 .4610443 .04399109 .3640747 .04499817 .2651062 .13999939 .24711609 .23599243 .23112488 .31698609 .21812439 .39898683 .20413208 .39698792 .1331482 .3939972 .05517578 .30299378 .03918457 .24299622 .03918457 .1769867 .03918457 .102996829 .06417847 .06199646 .12315369L.025985718 .091156009C.068984989 .025177002 .15499878-.0078125 .24198914-.0078125 .32899476-.0078125 .44198609 .0211792 .44499208 .13015747 .44999696 .24511719 .32899476 .26010133 .24099732 .2751007 .1789856 .2861023 .09298706 .29910279 .09098816 .36506654 .08898926 .4280548 .16299439 .4570465 .23999024 .4560547 .29499818 .4560547 .34399415 .44804383 .3939972 .404068L.42399598 .43605042Z"/>
<path id="font_2_6" d="M.2809906 .060058595 .06498718 .7001953H.0079956059L.25299073-.001953125H.31098939L.4229889 .32810975 .5109863 .6031647 .598999 .32611085 .70999148-.001953125H.7679901L1.0149994 .7001953H.95700076L.73999026 .060058595 .526001 .7001953H.49598695L.2809906 .060058595Z"/>
<path id="font_2_2" d="M.67900088 0 .36499024 .7001953H.30599977L-.008010864 0H.049987794L.12599182 .171875H.5439911L.62098696 0H.67900088M.14698792 .2218628 .33499146 .6481476 .522995 .2218628H.14698792Z"/>
<path id="font_2_3" d="M.60598757 .13114929C.54599 .07217407 .46598817 .042175294 .3869934 .042175294 .18499756 .042175294 .08099365 .18414307 .07899475 .3480835 .07798767 .516037 .18299866 .66000369 .3869934 .66000369 .46598817 .66000369 .54499819 .63101199 .6049957 .57102969L.6419983 .6030121C.57199099 .67300418 .47898866 .7080078 .3869934 .7080078 .14698792 .7080078 .024993897 .5330353 .026992798 .3460846 .027999878 .15715027 .15098572-.0078125 .3869934-.0078125 .47898866-.0078125 .57199099 .027175904 .6419983 .09716797L.60598757 .13114929Z"/>
<clipPath id="clip_3">
<path transform="matrix(1,0,0,-1,-103,473)" d="M0 792H612V0H0Z"/>
</clipPath>
</defs>
<g clip-path="url(#clip_1)">
<g inkscape:groupmode="layer" inkscape:label="Lager 1">

<use data-text="i" xlink:href="#font_2_13" transform="matrix(75.5638,0,0,-78.2648,22.439003,112.53961)" fill="#ffffff"/>
<use data-text="g" xlink:href="#font_2_11" transform="matrix(75.5638,0,0,-78.2648,36.720567,112.53961)" fill="#ffffff"/>
<use data-text="n" xlink:href="#font_2_14" transform="matrix(75.5638,0,0,-78.2648,77.75171,112.53961)" fill="#ffffff"/>
<use data-text="i" xlink:href="#font_2_13" transform="matrix(75.5638,0,0,-78.2648,121.2009,112.53961)" fill="#ffffff"/>
<use data-text="c" xlink:href="#font_2_9" transform="matrix(75.5638,0,0,-78.2648,135.48246,112.53961)" fill="#ffffff"/>
<use data-text="o" xlink:href="#font_2_15" transform="matrix(75.5638,0,0,-78.2648,174.39783,112.53961)" fill="#ffffff"/>
<use data-text="n" xlink:href="#font_2_14" transform="matrix(75.5638,0,0,-78.2648,219.13159,112.53961)" fill="#ffffff"/>
<use data-text=" " xlink:href="#font_2_1" transform="matrix(75.5638,0,0,-78.2648,262.58079,112.53961)" fill="#ffffff"/>
<use data-text="a" xlink:href="#font_2_7" transform="matrix(75.5638,0,0,-78.2648,283.36085,112.53961)" fill="#ffffff"/>
<use data-text="b" xlink:href="#font_2_8" transform="matrix(75.5638,0,0,-78.2648,328.54798,112.53961)" fill="#ffffff"/>
<use data-text="E" xlink:href="#font_2_4" transform="matrix(18.891,0,0,-19.5662,82.9355,132.7666)" fill="#E36020"/>
<use data-text="v" xlink:href="#font_2_19" transform="matrix(18.891,0,0,-19.5662,94.53458,132.7666)" fill="#E36020"/>
<use data-text="e" xlink:href="#font_2_10" transform="matrix(18.891,0,0,-19.5662,104.01785,132.7666)" fill="#E36020"/>
<use data-text="r" xlink:href="#font_2_16" transform="matrix(18.891,0,0,-19.5662,115.239109,132.7666)" fill="#E36020"/>
<use data-text="y" xlink:href="#font_2_20" transform="matrix(18.891,0,0,-19.5662,123.229999,132.7666)" fill="#E36020"/>
<use data-text="t" xlink:href="#font_2_18" transform="matrix(18.891,0,0,-19.5662,132.99665,132.7666)" fill="#E36020"/>
<use data-text="h" xlink:href="#font_2_12" transform="matrix(18.891,0,0,-19.5662,140.4397,132.7666)" fill="#E36020"/>
<use data-text="i" xlink:href="#font_2_13" transform="matrix(18.891,0,0,-19.5662,151.01866,132.7666)" fill="#E36020"/>
<use data-text="n" xlink:href="#font_2_14" transform="matrix(18.891,0,0,-19.5662,154.58905,132.7666)" fill="#E36020"/>
<use data-text="g" xlink:href="#font_2_11" transform="matrix(18.891,0,0,-19.5662,165.45139,132.7666)" fill="#E36020"/>
<use data-text=" " xlink:href="#font_2_1" transform="matrix(18.891,0,0,-19.5662,175.7092,132.7666)" fill="#E36020"/>
<use data-text="S" xlink:href="#font_2_5" transform="matrix(18.891,0,0,-19.5662,180.90424,132.7666)" fill="#E36020"/>
<use data-text="t" xlink:href="#font_2_18" transform="matrix(18.891,0,0,-19.5662,193.07004,132.7666)" fill="#E36020"/>
<use data-text="a" xlink:href="#font_2_7" transform="matrix(18.891,0,0,-19.5662,200.51309,132.7666)" fill="#E36020"/>
<use data-text="r" xlink:href="#font_2_16" transform="matrix(18.891,0,0,-19.5662,211.99881,132.7666)" fill="#E36020"/>
<use data-text="t" xlink:href="#font_2_18" transform="matrix(18.891,0,0,-19.5662,219.98783,132.7666)" fill="#E36020"/>
<use data-text="s" xlink:href="#font_2_17" transform="matrix(18.891,0,0,-19.5662,227.43088,132.7666)" fill="#E36020"/>
<use data-text=" " xlink:href="#font_2_1" transform="matrix(18.891,0,0,-19.5662,236.85749,132.7666)" fill="#E36020"/>
<use data-text="W" xlink:href="#font_2_6" transform="matrix(18.891,0,0,-19.5662,242.05252,132.7666)" fill="#E36020"/>
<use data-text="i" xlink:href="#font_2_13" transform="matrix(18.891,0,0,-19.5662,261.58583,132.7666)" fill="#E36020"/>
<use data-text="t" xlink:href="#font_2_18" transform="matrix(18.891,0,0,-19.5662,265.15623,132.7666)" fill="#E36020"/>
<use data-text="h" xlink:href="#font_2_12" transform="matrix(18.891,0,0,-19.5662,272.59928,132.7666)" fill="#E36020"/>
<use data-text=" " xlink:href="#font_2_1" transform="matrix(18.891,0,0,-19.5662,283.17823,132.7666)" fill="#E36020"/>
<use data-text="A" xlink:href="#font_2_2" transform="matrix(18.891,0,0,-19.5662,288.37327,132.7666)" fill="#E36020"/>
<use data-text=" " xlink:href="#font_2_1" transform="matrix(18.891,0,0,-19.5662,301.4836,132.7666)" fill="#E36020"/>
<use data-text="C" xlink:href="#font_2_3" transform="matrix(18.891,0,0,-19.5662,306.67866,132.7666)" fill="#E36020"/>
<use data-text="h" xlink:href="#font_2_12" transform="matrix(18.891,0,0,-19.5662,319.789,132.7666)" fill="#E36020"/>
<use data-text="o" xlink:href="#font_2_15" transform="matrix(18.891,0,0,-19.5662,330.36796,132.7666)" fill="#E36020"/>
<use data-text="i" xlink:href="#font_2_13" transform="matrix(18.891,0,0,-19.5662,341.55143,132.7666)" fill="#E36020"/>
<use data-text="c" xlink:href="#font_2_9" transform="matrix(18.891,0,0,-19.5662,345.12184,132.7666)" fill="#E36020"/>
<use data-text="e" xlink:href="#font_2_10" transform="matrix(18.891,0,0,-19.5662,355.03959,132.7666)" fill="#E36020"/>
<g clip-path="url(#clip_3)">
<path transform="matrix(1,0,0,-1,112.7095,60.839387)" stroke-width=".75" stroke-linecap="butt" stroke-miterlimit="10" stroke-linejoin="miter" fill="none" stroke="#ffffff" d="M0 0C.981-.672 2.064-.873 3.29-.5 4.486-.134 5.334 .493 5.538 1.545 5.732 2.583 5.886 3.628 6.162 4.651 7.112 8.115 9.585 10.668 13.672 12.273 17.279 13.691 21.162 14.177 25.106 14.333 27.763 14.445 30.451 14.349 33.097 14.177 35.182 14.042 37.276 13.759 39.299 13.371 41.762 12.9 44.062 12.079 45.972 10.728 46.483 10.37 46.585 10.213 45.757 9.981 42.385 9.048 39.218 7.771 36.51 5.92 33.771 4.046 31.646 1.792 30.267-.866 28.846-3.598 27.917-6.42 27.927-9.398 27.927-10.914 29.449-11.862 31.268-11.959 32.832-12.041 34.548-10.914 34.783-9.518 35.018-8.1 35.223-6.659 35.621-5.263 36.816-1.12 39.964 1.881 44.756 3.86 49.222 5.704 54.106 6.375 59.052 6.562 63.66 6.727 68.289 6.756 72.897 6.144 76.658 5.651 80.285 4.905 83.545 3.359 87.765 1.374 90.503-1.508 91.577-5.285 92.005-6.801 92.25-8.346 92.639-9.876 92.956-11.101 94.622-12.138 96.052-11.967 97.83-11.765 99.281-10.869 99.281-9.301 99.292-7.241 98.708-5.278 98.024-3.314 96.952-.246 95.009 2.441 92.209 4.741 90.074 6.495 87.571 7.854 84.761 8.869 83.632 9.277 82.533 9.753 81.328 10.019 81.275 10.03 81.047 10.076 80.897 10.223 80.853 10.266 80.827 10.307 80.812 10.334 81.514 10.858 82.595 11.579 84.076 12.25 87.691 13.891 91.166 14.219 95.5 14.326 98.821 14.408 102.163 14.207 105.484 14.027 108.784 13.855 111.89 13.072 114.731 11.75 117.439 10.489 119.442 8.697 120.372 6.353 121.015 4.755 121.24 3.068 121.659 1.426 122.068-.142 124.234-.896 125.614-.642 127.565-.284 128.781 1.068 128.505 2.605 128.393 3.188 128.189 3.755 128.096 4.33 127.79 6.323 127.065 8.227 125.889 10.003 124.653 11.87 123.069 13.512 120.954 14.878 118.747 16.304 116.274 17.305 113.627 18.081 108.886 19.47 103.9 19.701 98.914 19.835 96.982 19.888 95.02 19.634 93.079 19.544 89.962 19.402 86.937 18.902 83.994 18.088 79.754 16.909 76.096 15.095 73.51 12.146 73.051 11.624 72.417 11.571 71.712 11.616 69.515 11.78 67.318 12.086 65.131 12.071 61.861 12.042 58.592 11.795 55.332 11.609 55.056 11.594 54.811 11.616 54.586 11.668 54.06 11.791 53.753 12.074 53.646 12.168 53.112 12.641 50.63 14.688 48.649 15.812 47.238 16.611 45.568 17.233 44.869 17.493 44.869 17.493 44.28 17.712 43.683 17.909 36.725 20.208 30.246 19.776 28.335 19.85 27.467 19.88 26.598 19.768 25.729 19.701 23.288 19.492 20.825 19.335 18.403 19.037 13.846 18.484 9.738 17.118 6.141 14.796 3.393 13.02 1.584 10.81 .357 8.257-.47 6.562-.828 4.793-1.165 3.001-1.39 1.77-1.206 .821 0 0Z"/>
<path transform="matrix(1,0,0,-1,141.23,16.66159)" stroke-width=".75" stroke-linecap="butt" stroke-miterlimit="10" stroke-linejoin="miter" fill="none" stroke="#ffffff" d="M0 0C6.422 0 12.309-4.75 12.309-10.943 12.309-17.137 6.396-22.027-.026-22.027-6.448-22.027-12.31-17.243-12.31-11.05-12.31-4.857-6.422 0 0 0Z"/>
<path transform="matrix(1,0,0,-1,141.1729,21.782196)" stroke-width=".75" stroke-linecap="butt" stroke-miterlimit="10" stroke-linejoin="miter" fill="none" stroke="#ffffff" d="M0 0C4.273 0 6.549-2.36 6.549-6.031 6.549-9.702 4.273-11.765 0-11.765-4.272-11.765-6.548-9.615-6.548-5.944-6.548-2.273-4.272 0 0 0Z"/>
<path transform="matrix(1,0,0,-1,176.3486,21.782196)" stroke-width=".75" stroke-linecap="butt" stroke-miterlimit="10" stroke-linejoin="miter" fill="none" stroke="#ffffff" d="M0 0C7.026 0 13.466-5.395 13.466-12.428 13.466-19.461 6.998-25.016-.028-25.016-7.054-25.016-13.466-19.582-13.466-12.549-13.466-5.516-7.026 0 0 0Z"/>
<path transform="matrix(1,0,0,-1,176.2861,27.5195)" stroke-width=".75" stroke-linecap="butt" stroke-miterlimit="10" stroke-linejoin="miter" fill="none" stroke="#ffffff" d="M0 0C4.674 0 7.165-2.681 7.165-6.849 7.165-11.018 4.674-13.361 0-13.361-4.674-13.361-7.164-10.919-7.164-6.75-7.164-2.582-4.674 0 0 0Z"/>
<path transform="matrix(1,0,0,-1,212.5459,16.66159)" stroke-width=".75" stroke-linecap="butt" stroke-miterlimit="10" stroke-linejoin="miter" fill="none" stroke="#ffffff" d="M0 0C6.422 0 12.309-4.75 12.309-10.943 12.309-17.137 6.396-22.027-.026-22.027-6.448-22.027-12.31-17.243-12.31-11.05-12.31-4.857-6.423 0 0 0Z"/>
<path transform="matrix(1,0,0,-1,212.48831,21.782196)" stroke-width=".75" stroke-linecap="butt" stroke-miterlimit="10" stroke-linejoin="miter" fill="none" stroke="#ffffff" d="M0 0C4.273 0 6.549-2.36 6.549-6.031 6.549-9.702 4.273-11.765 0-11.765-4.272-11.765-6.549-9.615-6.549-5.944-6.549-2.273-4.272 0 0 0Z"/>
</g>
</g>
</g>
</svg>
